<svg xmlns="http://www.w3.org/2000/svg" version="1.1" viewBox="-5.0 -10.0 110.0 135.0">
 <path d="m40.625 32.812h18.75c2.5859 0 4.6875-2.1016 4.6875-4.6875v-18.75c0-2.5859-2.1016-4.6875-4.6875-4.6875h-1.5625v-1.5625c0-1.7266-1.3984-3.125-3.125-3.125h-9.375c-1.7266 0-3.125 1.3984-3.125 3.125v1.5625h-1.5625c-2.5859 0-4.6875 2.1016-4.6875 4.6875v18.75c0 2.5859 2.1016 4.6875 4.6875 4.6875zm9.375-21.875c4.3086 0 7.8125 3.5039 7.8125 7.8125s-3.5039 7.8125-7.8125 7.8125-7.8125-3.5039-7.8125-7.8125 3.5039-7.8125 7.8125-7.8125z"/>
 <path d="m26.562 96.875h-0.59766l17.785-35.57v-12.867l-24.402 48.438h-2.1602c-0.86328 0-1.5625 0.69922-1.5625 1.5625s0.69922 1.5625 1.5625 1.5625h9.375c0.86328 0 1.5625-0.69922 1.5625-1.5625s-0.69922-1.5625-1.5625-1.5625z"/>
 <path d="m82.812 96.875h-2.1602l-24.402-48.438v12.867l17.785 35.57h-0.59766c-0.86328 0-1.5625 0.69922-1.5625 1.5625s0.69922 1.5625 1.5625 1.5625h9.375c0.86328 0 1.5625-0.69922 1.5625-1.5625s-0.69922-1.5625-1.5625-1.5625z"/>
 <path d="m54.688 96.875h-1.5625v-48.438h-6.25v48.438h-1.5625c-0.86328 0-1.5625 0.69922-1.5625 1.5625s0.69922 1.5625 1.5625 1.5625h9.375c0.86328 0 1.5625-0.69922 1.5625-1.5625s-0.69922-1.5625-1.5625-1.5625z"/>
 <path d="m50 23.438c2.5859 0 4.6875-2.1016 4.6875-4.6875s-2.1016-4.6875-4.6875-4.6875-4.6875 2.1016-4.6875 4.6875 2.1016 4.6875 4.6875 4.6875zm0-6.25c0.86328 0 1.5625 0.69922 1.5625 1.5625s-0.69922 1.5625-1.5625 1.5625-1.5625-0.69922-1.5625-1.5625 0.69922-1.5625 1.5625-1.5625z"/>
 <path d="m45.312 35.938v3.125h-1.5625c-0.86328 0-1.5625 0.69922-1.5625 1.5625v3.125c0 0.86328 0.69922 1.5625 1.5625 1.5625h12.5c0.86328 0 1.5625-0.69922 1.5625-1.5625v-3.125c0-0.86328-0.69922-1.5625-1.5625-1.5625h-1.5625v-3.125z"/>
<text x="0.0" y="117.5" font-size="5.0" font-weight="bold" font-family="Arbeit Regular, Helvetica, Arial-Unicode, Arial, Sans-serif" fill="#000000">Created by Edy Subiyanto</text><text x="0.0" y="122.5" font-size="5.0" font-weight="bold" font-family="Arbeit Regular, Helvetica, Arial-Unicode, Arial, Sans-serif" fill="#000000">from Noun Project</text></svg>